# xmcd CD database file
#
# Track frame offsets:
#	150
#	11152
#	26207
#	37575
#	46705
#	63360
#	73280
#	84922
#	97837
#	105837
#	115985
#	129895
#	141897
#	152380
#	162517
#	175272
#	199412
#
# Disc length: 3626 seconds
#
# Revision: 7
# Processed by: cddbd v1.5.2PL0 Copyright (c) Steve Scherf et al.
# Submitted via: CDex 2.14
#
DISCID=d30e2811
DTITLE=Various Artist - Walk The Line (Original Motion Picture Soundtrack)
DYEAR=2005
DGENRE=Bluegrass
TTITLE0=Joaquin Phoenix - Get Rhythm
TTITLE1=Joaquin Phoenix - I Walk The Line
TTITLE2=Reese Witherspoon - Wildwood Flower
TTITLE3=Waylon Malloy Payne - Lewis Boogie
TTITLE4=Joaquin Phoenix - Ring Of Fire
TTITLE5=Johnathan Rice - You're My Baby
TTITLE6=Joaquin Phoenix - Cry Cry Cry
TTITLE7=Joaquin Phoenix - Folsom Prison Blues
TTITLE8=Tyler Hilton - That's All Right
TTITLE9=Reese Witherspoon - Juke Box Blues
TTITLE10=Joaquin Phoenix and Reese Witherspoon - It Ain't Me Babe
TTITLE11=Joaquin Phoenix - Home Of The Blues
TTITLE12=Tyler Hilton - Milk Cow Blues
TTITLE13=Shooter Jennings - I'm A Long Way From Home
TTITLE14=Joaquin Phoenix - Cocaine Blues
TTITLE15=Joaquin Phoenix and Reese Witherspoon - Jackson
TTITLE16=N/A -  - Data
EXTD=YEAR: 2005
EXTT0=
EXTT1=
EXTT2=
EXTT3=
EXTT4=
EXTT5=
EXTT6=
EXTT7=
EXTT8=
EXTT9=
EXTT10=
EXTT11=
EXTT12=
EXTT13=
EXTT14=
EXTT15=
EXTT16=
PLAYORDER=
